<?xml version="1.0" encoding="UTF-8"?>
<svg id="Layer_2" data-name="Layer 2" xmlns="http://www.w3.org/2000/svg" viewBox="0 0 367.36 367.36">
  <defs>
    <style>
      .cls-1, .cls-2 {
        stroke-width: 10px;
      }

      .cls-1, .cls-2, .cls-3 {
        stroke-miterlimit: 10;
      }

      .cls-1, .cls-3 {
        fill: #f9f9f9;
        stroke: #f9f9f9;
      }

      .cls-2 {
        fill: #141414;
        stroke: #141414;
      }
    </style>
  </defs>
  <g id="black_dice" data-name="black dice">
    <g id="six">
      <g>
        <rect class="cls-2" x="5" y="5" width="357.36" height="357.36" rx="30" ry="30"/>
        <g>
          <path class="cls-1" d="M281.23,193.6c2.97,7.98-4.53,15.38-12.62,12.45-2.47-.9-4.45-2.84-5.36-5.28-2.97-7.98,4.53-15.38,12.62-12.45,2.47,.9,4.45,2.84,5.35,5.28Z"/>
          <path class="cls-1" d="M300.54,91.83c2.97,7.98-4.53,15.38-12.62,12.45-2.47-.9-4.45-2.84-5.36-5.28-2.97-7.98,4.53-15.38,12.62-12.45,2.47,.9,4.45,2.84,5.35,5.28Z"/>
          <path class="cls-1" d="M85.46,146.43c2.97,7.98-4.53,15.38-12.62,12.45-2.47-.9-4.45-2.84-5.36-5.28-2.97-7.98,4.53-15.38,12.62-12.45,2.47,.9,4.45,2.84,5.35,5.28Z"/>
          <g>
            <path class="cls-3" d="M285.28,82.68c-1.62,.24-2.3,.7-5.11,3.47-1.09,1.07-2.12,1.97-2.28,1.97s-2.45-.42-5.11-.94c-12.11-2.35-18.35-2.98-29.56-2.99-13.17-.01-17.25,.64-27.69,4.43-15.8,5.74-30.18,11.85-36.67,15.59-6.27,3.62-9.72,6.22-14.54,11.01-1.67,1.66-3.09,3.02-3.16,3.03-.07,0-.77-1.43-1.55-3.16-4.25-9.46-11.22-16.93-20.95-22.46-3.59-2.04-5.31-2.5-7.81-2.1-4.32,.69-12.67,3.37-17.85,5.72-5.59,2.54-11.08,5.93-15.2,9.39-4.96,4.17-10.84,11.45-16.48,20.41l-1.93,3.07h-2.55c-5.21,.02-8.6,1.44-11.9,5-5.35,5.76-6.59,13.23-3.37,20.23,1.76,3.83,5.82,7.69,9.46,9,1.47,.53,2.06,.58,5.65,.5l4.01-.1,2.68-1.43c4.27-2.28,6.85-5.49,8.39-10.44,1.59-5.13,1.02-9.73-1.86-14.83l-1.24-2.2,2.45-2.55c5.39-5.61,14.39-11.73,17.75-12.08,2.5-.26,4.59,1.16,6.3,4.26,1.91,3.48,3.16,8.04,5.46,19.99,2.5,12.98,3.17,15.15,6.94,22.54,1.37,2.69,2.92,5.9,3.43,7.13l.94,2.24h4.32c5.11,0,8.72,.28,17.98,1.37,22.48,2.67,54.28,8.71,63.95,12.15l2,.71,.78-.95c.43-.52,1.5-1.93,2.36-3.12,2.01-2.77,5.5-6.61,7.78-8.57,4.87-4.19,9.58-5.77,15.35-5.15,3.19,.34,5.39,1.04,8.67,2.77,2.23,1.17,6.44,4.18,6.45,4.62,0,.09-.73,1.06-1.63,2.17-2.96,3.64-3.93,6.36-3.93,10.97,0,3.39,.47,5.59,1.78,8.28,1.74,3.58,5.56,7.27,8.77,8.46,1.54,.57,2.17,.64,6.04,.64h4.32l2.25-1.19c1.85-.98,2.65-1.63,4.53-3.67,3.68-3.99,4.78-6.82,4.78-12.25s-1.3-8.77-4.76-12.52c-3.03-3.28-6.13-4.73-11.57-5.39l-1.42-.17-1.42-4.67c-2.68-8.85-6.16-15.27-11.18-20.65-5.8-6.22-12.59-9.15-22.73-9.82-6.74-.45-16.64,1.51-25.39,5.02-1.16,.47-2.21,.81-2.31,.77-.11-.05,1.05-1.23,2.59-2.66,4.91-4.54,9.26-10.05,17.38-22,6.73-9.91,8.7-12.57,11.53-15.61,8.85-9.48,17.78-11.75,30.6-7.75,5.18,1.62,4.95,1.43,5.68,4.46,.79,3.29,2.08,5.65,4.56,8.34,1.63,1.77,2.62,2.58,4.05,3.34,4.62,2.44,9.89,2.39,14.67-.14,1.75-.92,2.57-1.6,4.43-3.61,1.25-1.36,2.6-3.12,2.99-3.91,1.82-3.67,1.87-12.19,.09-15.97-1.04-2.2-2.88-4.62-4.55-5.98q-2.6-2.12-9.15-2.18c-3.21-.03-6.46,.04-7.26,.16h0Z"/>
            <path class="cls-3" d="M129.8,184.84c-.18,.35-.25,1.34-.18,2.51,.16,2.62,1.3,5.54,4.15,10.62,1.27,2.25,2.63,4.8,3.05,5.7,2.11,4.52,2.5,8.61,1.58,16.57-1.77,15.29,.32,22.33,8.3,28.02,2.98,2.12,5.94,5.37,7.48,8.21,1.72,3.17,3.66,8.12,5.07,12.93,1.27,4.32,2.65,7.59,4.09,9.7,1.12,1.63,3.43,3.9,4.67,4.58,1.4,.77,4.15,1.14,8.7,1.17,4.58,.03,5.01-.09,7-1.99,1.4-1.33,3.3-3.98,4.14-5.77,.34-.72,1.47-4.02,2.52-7.36,3.8-12.06,6.52-16.57,12.68-21.08,4.45-3.26,6.74-6.51,7.88-11.21,1.2-4.95,1.28-9.78,.28-16.76-.65-4.54-.64-9.22,0-12.14,.63-2.81,1.34-4.54,3.13-7.58,.78-1.33,1.39-2.54,1.34-2.69-.39-1.31-13.9-4.44-33.43-7.74-19.8-3.35-43.12-6.26-50.25-6.27-1.74,0-1.98,.06-2.24,.58h0Zm69.81,24.84c2.42,.77,2.91,1.89,2.16,4.91-.83,3.34-2.92,6.28-5.38,7.58-1.22,.64-1.77,.75-4.45,.86-3.41,.14-6.81-.34-8.45-1.2-.93-.48-.96-.56-1.04-2.1-.11-2.18,.71-3.93,2.83-6.07,4.02-4.04,9.41-5.54,14.31-3.98h0Zm-41.55-.07c2.91,.81,7.16,4.56,8.51,7.51,.88,1.93,.93,3.89,.11,4.45-1.78,1.21-7.03,1.84-10.7,1.28-3.69-.56-5.77-2.08-7.2-5.29-.64-1.44-1.52-5.05-1.52-6.27,0-1.48,7.38-2.62,10.8-1.67h0Zm33.46,33.83c0,.13-.5,1.82-1.1,3.75-3.54,11.27-8.01,18.75-12.88,21.58-1.38,.8-1.8,.91-3.46,.91-2.35,0-3.37-.49-5.34-2.59-2.39-2.54-4.62-6.65-6.4-11.75-.93-2.69-2.68-9.84-2.68-10.97q0-.73,3.92,.47c4.17,1.28,5.31,1.4,12.8,1.3l6.93-.09,3.67-1.41c3.69-1.42,4.55-1.64,4.55-1.2h0Z"/>
          </g>
        </g>
      </g>
    </g>
  </g>
</svg>