<?xml version="1.0" encoding="UTF-8"?>
<svg id="Layer_2" data-name="Layer 2" xmlns="http://www.w3.org/2000/svg" viewBox="0 0 367.36 367.36">
  <defs>
    <style>
      .cls-1 {
        fill: #e78b8b;
      }

      .cls-2 {
        stroke: #000;
        stroke-miterlimit: 10;
        stroke-width: 10px;
      }
    </style>
  </defs>
  <g id="black_dice" data-name="black dice">
    <g id="six">
      <rect class="cls-2" x="5" y="5" width="357.36" height="357.36" rx="60" ry="60"/>
      <g id="layer1">
        <path id="path1252" class="cls-1" d="M128.88,213.79c-2.7,33.89,10.22,67.16,35.09,90.35,12.34,11.51,31.48,11.51,43.83,0,24.87-23.18,37.79-56.45,35.09-90.35h-114.01Zm82.3,18.25c4.46-.08,8.83,1.19,12.55,3.63,.26,.17,.37,.5,.25,.78-4.22,10.24-15.95,15.12-26.19,10.89-1.93-.8-3.72-1.89-5.31-3.23-.26-.18-.34-.53-.21-.8h.07c3.85-6.84,11.01-11.12,18.85-11.27h0Zm-51.78,.01c8.31-.34,16.11,4,20.18,11.25,.13,.28,.05,.62-.21,.8h.07c-8.46,7.16-21.11,6.1-28.27-2.36-1.34-1.59-2.43-3.38-3.23-5.3-.12-.28-.02-.61,.23-.79,3.34-2.19,7.22-3.44,11.22-3.61h0Zm.14,33.08c.17-.02,.35,.03,.48,.15,6.79,5.77,15.02,9.56,23.82,10.97,1.35,.22,2.72,.22,4.07,0,8.8-1.41,17.02-5.2,23.82-10.97,.27-.22,.68-.19,.91,.09,.13,.15,.18,.37,.13,.57-2.88,11.43-10.43,21.12-20.81,26.7-3.8,2.05-8.38,2.05-12.19,0-10.37-5.59-17.92-15.28-20.8-26.7-.09-.34,.11-.7,.46-.79,.03,0,.07-.02,.11-.02h0Z"/>
        <path id="path1244" class="cls-1" d="M221.88,148.69c-19.75-19.53-23.94-49.87-10.25-74.03,4.81,4.01,11.98,3.36,15.99-1.46,4.01-4.81,3.36-11.97-1.46-15.98-4.81-4.01-11.98-3.36-15.99,1.46-3.06,3.67-3.48,8.87-1.07,13-32.31,8.38-55.87,36.15-58.86,69.39-15.54-23.5-47.19-29.96-70.69-14.42-.04,.03-.08,.05-.12,.08-1.68-6.04-7.93-9.57-13.97-7.9-6.04,1.68-9.57,7.94-7.9,13.97,1.68,6.04,7.94,9.57,13.97,7.9,4.53-1.26,7.81-5.17,8.26-9.85,26.57,15.62,44.52,42.55,48.7,73.09h114.81c7.04-21.9,23.21-39.68,44.35-48.76,.99,6.19,6.81,10.4,13,9.41,6.19-.99,10.4-6.81,9.41-13-.99-6.19-6.81-10.4-13-9.41-3.74,.6-6.93,3.03-8.52,6.47-18.04-18.4-47.58-18.69-65.98-.65-.23,.23-.46,.46-.69,.7h0Z"/>
      </g>
    </g>
  </g>
</svg>