<?xml version="1.0" encoding="UTF-8"?>
<svg id="Layer_2" data-name="Layer 2" xmlns="http://www.w3.org/2000/svg" viewBox="0 0 367.36 367.36">
  <defs>
    <style>
      .cls-1 {
        fill: #e78b8b;
        stroke: #e78b8b;
      }

      .cls-1, .cls-2 {
        stroke-miterlimit: 10;
        stroke-width: 10px;
      }

      .cls-2 {
        fill: #141414;
        stroke: #141414;
      }
    </style>
  </defs>
  <g id="black_dice" data-name="black dice">
    <g id="six">
      <g>
        <rect class="cls-2" x="5" y="5" width="357.36" height="357.36" rx="30" ry="30"/>
        <g>
          <ellipse class="cls-1" cx="101.34" cy="98.49" rx="28.34" ry="28.26" transform="translate(-39.96 100.53) rotate(-45.01)"/>
          <ellipse class="cls-1" cx="101.34" cy="268.86" rx="28.34" ry="28.26" transform="translate(-160.45 150.44) rotate(-45.01)"/>
          <path class="cls-1" d="M296.05,96.2c1.37,17.44-13.07,31.88-30.51,30.51-13.72-1.08-24.83-12.2-25.92-25.92-1.38-17.44,13.07-31.89,30.51-30.51,13.72,1.08,24.83,12.2,25.92,25.92Z"/>
          <path class="cls-1" d="M296.05,266.57c1.37,17.44-13.07,31.88-30.51,30.51-13.72-1.08-24.83-12.2-25.92-25.92-1.38-17.44,13.07-31.89,30.51-30.51,13.72,1.08,24.83,12.2,25.92,25.92Z"/>
        </g>
      </g>
    </g>
  </g>
</svg>