<svg width="24" height="24" viewBox="0 0 24 24" xmlns="http://www.w3.org/2000/svg" xmlns:xlink="http://www.w3.org/1999/xlink" overflow="hidden"><path d="M10.9 2.1C6.3 2.6 2.6 6.3 2.1 10.8 1.5 15.8 4.6 20.1 9 21.5L9 19.2C9 19.2 8.6 19.3 8.1 19.3 6.7 19.3 6.1 18.1 6 17.4 5.9 17 5.7 16.7 5.4 16.4 5.1 16.3 5 16.3 5 16.2 5 16 5.3 16 5.4 16 6 16 6.5 16.7 6.7 17 7.2 17.8 7.8 18 8.1 18 8.5 18 8.8 17.9 9 17.8 9.1 17.1 9.4 16.4 10 16 7.7 15.5 6 14.2 6 12 6 10.9 6.5 9.8 7.2 9 7.1 8.8 7 8.3 7 7.6 7 7.2 7 6.6 7.3 6 7.3 6 8.7 6 10.1 7.3 10.6 7.1 11.3 7 12 7 12.7 7 13.4 7.1 14 7.3 15.3 6 16.8 6 16.8 6 17 6.6 17 7.2 17 7.6 17 8.4 16.9 8.8 16.8 9 17.5 9.8 18 10.8 18 12 18 14.2 16.3 15.5 14 16 14.6 16.5 15 17.4 15 18.3L15 21.6C19.1 20.3 22 16.5 22 12.1 22 6.1 16.9 1.4 10.9 2.1Z" stroke-width="0.666667" fill="#FFFFFF"/></svg>